<mxfile host="app.diagrams.net" modified="2023-11-13T17:10:57.037Z" agent="Mozilla/5.0 (X11; Ubuntu; Linux x86_64; rv:109.0) Gecko/20100101 Firefox/119.0" etag="g3UqGyPo_Jat08koh-I0" version="22.1.0" type="github">
  <diagram name="Page-1" id="Hc7sGyLZE4mimOrlhhbP">
    <mxGraphModel dx="990" dy="718" grid="1" gridSize="10" guides="1" tooltips="1" connect="1" arrows="1" fold="1" page="1" pageScale="1" pageWidth="850" pageHeight="1100" math="0" shadow="0">
      <root>
        <mxCell id="0" />
        <mxCell id="1" parent="0" />
        <mxCell id="dHeDIxCaNxrwyo6YR83j-4" value="" style="group" vertex="1" connectable="0" parent="1">
          <mxGeometry x="210" y="180" width="405" height="480" as="geometry" />
        </mxCell>
        <mxCell id="dHeDIxCaNxrwyo6YR83j-24" style="edgeStyle=orthogonalEdgeStyle;rounded=0;orthogonalLoop=1;jettySize=auto;html=1;exitX=0.216;exitY=1.001;exitDx=0;exitDy=0;entryX=0.5;entryY=0;entryDx=0;entryDy=0;exitPerimeter=0;" edge="1" parent="dHeDIxCaNxrwyo6YR83j-4">
          <mxGeometry relative="1" as="geometry">
            <mxPoint x="107.34999999999994" y="370.3699999999999" as="sourcePoint" />
            <mxPoint x="107.65999999999994" y="390" as="targetPoint" />
          </mxGeometry>
        </mxCell>
        <mxCell id="dHeDIxCaNxrwyo6YR83j-1" value="" style="whiteSpace=wrap;html=1;" vertex="1" parent="dHeDIxCaNxrwyo6YR83j-4">
          <mxGeometry width="340" height="370" as="geometry" />
        </mxCell>
        <mxCell id="dHeDIxCaNxrwyo6YR83j-2" value="" style="rounded=1;whiteSpace=wrap;html=1;" vertex="1" parent="dHeDIxCaNxrwyo6YR83j-4">
          <mxGeometry x="10" y="20" width="150" height="30" as="geometry" />
        </mxCell>
        <mxCell id="dHeDIxCaNxrwyo6YR83j-3" value="Bg Knowledge" style="text;html=1;strokeColor=none;fillColor=none;align=center;verticalAlign=middle;whiteSpace=wrap;rounded=0;" vertex="1" parent="dHeDIxCaNxrwyo6YR83j-4">
          <mxGeometry x="45" y="20" width="80" height="30" as="geometry" />
        </mxCell>
        <mxCell id="dHeDIxCaNxrwyo6YR83j-5" value="User Interaface" style="rounded=1;whiteSpace=wrap;html=1;" vertex="1" parent="dHeDIxCaNxrwyo6YR83j-4">
          <mxGeometry x="180" y="20" width="120" height="30" as="geometry" />
        </mxCell>
        <mxCell id="dHeDIxCaNxrwyo6YR83j-6" value="&lt;div&gt;Assessment &lt;br&gt;&lt;/div&gt;&lt;div&gt;Cross-Evaluation&lt;br&gt;&lt;/div&gt;" style="rounded=1;whiteSpace=wrap;html=1;rotation=90;" vertex="1" parent="dHeDIxCaNxrwyo6YR83j-4">
          <mxGeometry x="-80" y="160" width="220" height="30" as="geometry" />
        </mxCell>
        <mxCell id="dHeDIxCaNxrwyo6YR83j-7" value="&lt;div&gt;Perception Sensor-Fusion&lt;br&gt;&lt;/div&gt;" style="rounded=1;whiteSpace=wrap;html=1;rotation=90;" vertex="1" parent="dHeDIxCaNxrwyo6YR83j-4">
          <mxGeometry x="-10" y="130" width="160" height="30" as="geometry" />
        </mxCell>
        <mxCell id="dHeDIxCaNxrwyo6YR83j-8" value="&lt;div&gt;Mapping &lt;br&gt;&lt;/div&gt;" style="rounded=1;whiteSpace=wrap;html=1;rotation=90;" vertex="1" parent="dHeDIxCaNxrwyo6YR83j-4">
          <mxGeometry x="60" y="100" width="100" height="30" as="geometry" />
        </mxCell>
        <mxCell id="dHeDIxCaNxrwyo6YR83j-9" value="Evaluation" style="rounded=1;whiteSpace=wrap;html=1;rotation=90;" vertex="1" parent="dHeDIxCaNxrwyo6YR83j-4">
          <mxGeometry x="115" y="82.5" width="65" height="30" as="geometry" />
        </mxCell>
        <mxCell id="dHeDIxCaNxrwyo6YR83j-11" value="" style="rounded=1;whiteSpace=wrap;html=1;" vertex="1" parent="dHeDIxCaNxrwyo6YR83j-4">
          <mxGeometry x="180" y="68" width="120" height="152" as="geometry" />
        </mxCell>
        <mxCell id="dHeDIxCaNxrwyo6YR83j-12" value="Navigation" style="rounded=1;whiteSpace=wrap;html=1;" vertex="1" parent="dHeDIxCaNxrwyo6YR83j-4">
          <mxGeometry x="185" y="92.5" width="110" height="20" as="geometry" />
        </mxCell>
        <mxCell id="dHeDIxCaNxrwyo6YR83j-13" value="Pilot" style="rounded=1;whiteSpace=wrap;html=1;" vertex="1" parent="dHeDIxCaNxrwyo6YR83j-4">
          <mxGeometry x="185" y="130" width="110" height="20" as="geometry" />
        </mxCell>
        <mxCell id="dHeDIxCaNxrwyo6YR83j-14" value="Low-Level" style="rounded=1;whiteSpace=wrap;html=1;" vertex="1" parent="dHeDIxCaNxrwyo6YR83j-4">
          <mxGeometry x="185" y="165" width="110" height="20" as="geometry" />
        </mxCell>
        <mxCell id="dHeDIxCaNxrwyo6YR83j-15" value="Fail-Safe" style="rounded=1;whiteSpace=wrap;html=1;" vertex="1" parent="dHeDIxCaNxrwyo6YR83j-4">
          <mxGeometry x="60" y="230" width="240" height="50" as="geometry" />
        </mxCell>
        <mxCell id="dHeDIxCaNxrwyo6YR83j-16" value="&lt;font style=&quot;font-size: 9px;&quot;&gt;Safety sensors&lt;/font&gt;" style="rounded=1;whiteSpace=wrap;html=1;" vertex="1" parent="dHeDIxCaNxrwyo6YR83j-4">
          <mxGeometry x="75" y="260" width="65" height="10" as="geometry" />
        </mxCell>
        <mxCell id="dHeDIxCaNxrwyo6YR83j-17" value="&lt;font style=&quot;font-size: 9px;&quot;&gt;Safety Control&lt;/font&gt;" style="rounded=1;whiteSpace=wrap;html=1;" vertex="1" parent="dHeDIxCaNxrwyo6YR83j-4">
          <mxGeometry x="215" y="260" width="75" height="10" as="geometry" />
        </mxCell>
        <mxCell id="dHeDIxCaNxrwyo6YR83j-18" value="Hardware Abstraction" style="rounded=1;whiteSpace=wrap;html=1;" vertex="1" parent="dHeDIxCaNxrwyo6YR83j-4">
          <mxGeometry x="20" y="300" width="280" height="50" as="geometry" />
        </mxCell>
        <mxCell id="dHeDIxCaNxrwyo6YR83j-19" value="&lt;font style=&quot;font-size: 9px;&quot;&gt;Mission&lt;/font&gt;" style="rounded=1;whiteSpace=wrap;html=1;" vertex="1" parent="dHeDIxCaNxrwyo6YR83j-4">
          <mxGeometry x="30" y="330" width="65" height="10" as="geometry" />
        </mxCell>
        <mxCell id="dHeDIxCaNxrwyo6YR83j-20" value="&lt;font style=&quot;font-size: 9px;&quot;&gt;Safety Critical&lt;/font&gt;" style="rounded=1;whiteSpace=wrap;html=1;" vertex="1" parent="dHeDIxCaNxrwyo6YR83j-4">
          <mxGeometry x="220" y="330" width="75" height="10" as="geometry" />
        </mxCell>
        <mxCell id="dHeDIxCaNxrwyo6YR83j-23" style="edgeStyle=orthogonalEdgeStyle;rounded=0;orthogonalLoop=1;jettySize=auto;html=1;exitX=0.25;exitY=0;exitDx=0;exitDy=0;" edge="1" parent="dHeDIxCaNxrwyo6YR83j-4" source="dHeDIxCaNxrwyo6YR83j-21">
          <mxGeometry relative="1" as="geometry">
            <mxPoint x="36.714285714285666" y="370" as="targetPoint" />
          </mxGeometry>
        </mxCell>
        <mxCell id="dHeDIxCaNxrwyo6YR83j-21" value="Simulation" style="rounded=1;whiteSpace=wrap;html=1;" vertex="1" parent="dHeDIxCaNxrwyo6YR83j-4">
          <mxGeometry y="390" width="147.5" height="60" as="geometry" />
        </mxCell>
        <mxCell id="dHeDIxCaNxrwyo6YR83j-27" value="Real Machine" style="rounded=1;whiteSpace=wrap;html=1;" vertex="1" parent="dHeDIxCaNxrwyo6YR83j-4">
          <mxGeometry x="192.5" y="390" width="147.5" height="60" as="geometry" />
        </mxCell>
        <mxCell id="dHeDIxCaNxrwyo6YR83j-25" style="edgeStyle=orthogonalEdgeStyle;rounded=0;orthogonalLoop=1;jettySize=auto;html=1;exitX=0.216;exitY=1.001;exitDx=0;exitDy=0;entryX=0.5;entryY=0;entryDx=0;entryDy=0;exitPerimeter=0;" edge="1" parent="1">
          <mxGeometry relative="1" as="geometry">
            <mxPoint x="507.3499999999999" y="550.3699999999999" as="sourcePoint" />
            <mxPoint x="507.65999999999997" y="570" as="targetPoint" />
          </mxGeometry>
        </mxCell>
        <mxCell id="dHeDIxCaNxrwyo6YR83j-26" style="edgeStyle=orthogonalEdgeStyle;rounded=0;orthogonalLoop=1;jettySize=auto;html=1;exitX=0.25;exitY=0;exitDx=0;exitDy=0;" edge="1" parent="1" source="dHeDIxCaNxrwyo6YR83j-27">
          <mxGeometry relative="1" as="geometry">
            <mxPoint x="436.71428571428567" y="550" as="targetPoint" />
          </mxGeometry>
        </mxCell>
      </root>
    </mxGraphModel>
  </diagram>
</mxfile>
